{
    "asset" : {
        "generator" : "Khronos glTF Blender I/O v1.4.40",
        "version" : "2.0"
    },
    "scene" : 0,
    "scenes" : [
        {
            "name" : "Scene",
            "nodes" : [
                0,
                1,
                2,
                3
            ]
        }
    ],
    "nodes" : [
        {
            "mesh" : 0,
            "name" : "Circle",
            "translation" : [
                1.8673197031021118,
                0,
                0.11999981105327606
            ]
        },
        {
            "mesh" : 1,
            "name" : "Square",
            "translation" : [
                -1.8551905155181885,
                0,
                0.11999980360269547
            ]
        },
        {
            "mesh" : 2,
            "name" : "Triangle",
            "translation" : [
                -0.6008099317550659,
                0,
                0.1199999451637268
            ]
        },
        {
            "mesh" : 3,
            "name" : "Dash",
            "translation" : [
                0.6449998021125793,
                0,
                0.11999998241662979
            ]
        }
    ],
    "meshes" : [
        {
            "name" : "Circle",
            "primitives" : [
                {
                    "attributes" : {
                        "POSITION" : 0,
                        "NORMAL" : 1,
                        "TEXCOORD_0" : 2
                    },
                    "indices" : 3
                }
            ]
        },
        {
            "name" : "Square",
            "primitives" : [
                {
                    "attributes" : {
                        "POSITION" : 4,
                        "NORMAL" : 5,
                        "TEXCOORD_0" : 6
                    },
                    "indices" : 7
                }
            ]
        },
        {
            "name" : "Triangle",
            "primitives" : [
                {
                    "attributes" : {
                        "POSITION" : 8,
                        "NORMAL" : 9,
                        "TEXCOORD_0" : 10
                    },
                    "indices" : 11
                }
            ]
        },
        {
            "name" : "Dash",
            "primitives" : [
                {
                    "attributes" : {
                        "POSITION" : 12,
                        "NORMAL" : 13,
                        "TEXCOORD_0" : 14
                    },
                    "indices" : 15
                }
            ]
        }
    ],
    "accessors" : [
        {
            "bufferView" : 0,
            "componentType" : 5126,
            "count" : 1080,
            "max" : [
                0.28855931758880615,
                0.28855985403060913,
                0.1200002133846283
            ],
            "min" : [
                -0.27144062519073486,
                -0.2714400887489319,
                -0.11999982595443726
            ],
            "type" : "VEC3"
        },
        {
            "bufferView" : 1,
            "componentType" : 5126,
            "count" : 1080,
            "type" : "VEC3"
        },
        {
            "bufferView" : 2,
            "componentType" : 5126,
            "count" : 1080,
            "type" : "VEC2"
        },
        {
            "bufferView" : 3,
            "componentType" : 5123,
            "count" : 6468,
            "type" : "SCALAR"
        },
        {
            "bufferView" : 4,
            "componentType" : 5126,
            "count" : 744,
            "max" : [
                0.25478649139404297,
                0.2547866106033325,
                0.12000022083520889
            ],
            "min" : [
                -0.30521368980407715,
                -0.30521339178085327,
                -0.11999981850385666
            ],
            "type" : "VEC3"
        },
        {
            "bufferView" : 5,
            "componentType" : 5126,
            "count" : 744,
            "type" : "VEC3"
        },
        {
            "bufferView" : 6,
            "componentType" : 5126,
            "count" : 744,
            "type" : "VEC2"
        },
        {
            "bufferView" : 7,
            "componentType" : 5123,
            "count" : 4452,
            "type" : "SCALAR"
        },
        {
            "bufferView" : 8,
            "componentType" : 5126,
            "count" : 352,
            "max" : [
                0.3165856599807739,
                0.26796644926071167,
                0.12000007927417755
            ],
            "min" : [
                -0.316585898399353,
                -0.29472798109054565,
                -0.119999960064888
            ],
            "type" : "VEC3"
        },
        {
            "bufferView" : 9,
            "componentType" : 5126,
            "count" : 352,
            "type" : "VEC3"
        },
        {
            "bufferView" : 10,
            "componentType" : 5126,
            "count" : 352,
            "type" : "VEC2"
        },
        {
            "bufferView" : 11,
            "componentType" : 5123,
            "count" : 2100,
            "type" : "SCALAR"
        },
        {
            "bufferView" : 12,
            "componentType" : 5126,
            "count" : 572,
            "max" : [
                0.28000015020370483,
                0.020000003278255463,
                0.12000002712011337
            ],
            "min" : [
                -0.2799997925758362,
                -0.020000005140900612,
                -0.11999998241662979
            ],
            "type" : "VEC3"
        },
        {
            "bufferView" : 13,
            "componentType" : 5126,
            "count" : 572,
            "type" : "VEC3"
        },
        {
            "bufferView" : 14,
            "componentType" : 5126,
            "count" : 572,
            "type" : "VEC2"
        },
        {
            "bufferView" : 15,
            "componentType" : 5123,
            "count" : 924,
            "type" : "SCALAR"
        }
    ],
    "bufferViews" : [
        {
            "buffer" : 0,
            "byteLength" : 12960,
            "byteOffset" : 0
        },
        {
            "buffer" : 0,
            "byteLength" : 12960,
            "byteOffset" : 12960
        },
        {
            "buffer" : 0,
            "byteLength" : 8640,
            "byteOffset" : 25920
        },
        {
            "buffer" : 0,
            "byteLength" : 12936,
            "byteOffset" : 34560
        },
        {
            "buffer" : 0,
            "byteLength" : 8928,
            "byteOffset" : 47496
        },
        {
            "buffer" : 0,
            "byteLength" : 8928,
            "byteOffset" : 56424
        },
        {
            "buffer" : 0,
            "byteLength" : 5952,
            "byteOffset" : 65352
        },
        {
            "buffer" : 0,
            "byteLength" : 8904,
            "byteOffset" : 71304
        },
        {
            "buffer" : 0,
            "byteLength" : 4224,
            "byteOffset" : 80208
        },
        {
            "buffer" : 0,
            "byteLength" : 4224,
            "byteOffset" : 84432
        },
        {
            "buffer" : 0,
            "byteLength" : 2816,
            "byteOffset" : 88656
        },
        {
            "buffer" : 0,
            "byteLength" : 4200,
            "byteOffset" : 91472
        },
        {
            "buffer" : 0,
            "byteLength" : 6864,
            "byteOffset" : 95672
        },
        {
            "buffer" : 0,
            "byteLength" : 6864,
            "byteOffset" : 102536
        },
        {
            "buffer" : 0,
            "byteLength" : 4576,
            "byteOffset" : 109400
        },
        {
            "buffer" : 0,
            "byteLength" : 1848,
            "byteOffset" : 113976
        }
    ],
    "buffers" : [
        {
            "byteLength" : 115824,
            "uri" : "data:application/octet-stream;base64,"
        }
    ]
}
